<?xml version="1.0" encoding="UTF-8"?>
<svg version="1.1" xmlns="http://www.w3.org/2000/svg" width="160" height="50">
<path d="M0 0 C5.14894544 0.83601997 8.10751599 3.80932701 11.51171875 7.54296875 C13.21249738 12.14507564 13.214713 16.57867887 12.57421875 21.41796875 C10.11854323 26.42027073 6.57718805 29.9164841 1.57421875 32.41796875 C-5.24433251 33.17835564 -9.97156163 32.67226005 -15.42578125 28.41796875 C-19.203662 23.57453189 -20.02983142 19.83350295 -19.7421875 13.71875 C-19.30883011 10.56754626 -18.57304787 8.77996203 -16.42578125 6.41796875 C-14.45962464 5.35296725 -12.45851199 4.34963701 -10.42578125 3.41796875 C-9.966875 2.90492187 -9.50796875 2.391875 -9.03515625 1.86328125 C-6.31399003 -0.58048453 -3.50685554 -0.10750944 0 0 Z M-10.42578125 10.41796875 C-12.03354534 13.63349694 -12.03064038 16.94002875 -11.42578125 20.41796875 C-8.87583977 23.4178999 -7.29695369 24.27277334 -3.42578125 24.91796875 C0.26369854 24.30305545 1.95133468 23.04085282 4.57421875 20.41796875 C4.57421875 19.75796875 4.57421875 19.09796875 4.57421875 18.41796875 C1.42684693 19.11738471 -1.45167001 20.17875573 -4.42578125 21.41796875 C-5.74578125 20.09796875 -7.06578125 18.77796875 -8.42578125 17.41796875 C-7.67578125 14.98046875 -7.67578125 14.98046875 -6.42578125 12.41796875 C-4.48828125 11.48046875 -4.48828125 11.48046875 -2.42578125 11.41796875 C-1.43578125 12.07796875 -0.44578125 12.73796875 0.57421875 13.41796875 C2.72696823 13.10956276 2.72696823 13.10956276 4.57421875 12.41796875 C2.57354859 10.12090301 1.05455279 8.60757429 -1.80078125 7.48046875 C-5.35687094 7.39579995 -7.4281156 8.5784921 -10.42578125 10.41796875 Z " fill="#1A1A28" transform="translate(19.42578125,8.58203125)"/>
<path d="M0 0 C5.41543537 1.08308707 5.81188089 1.38516751 8.8125 5.5625 C9.41707031 6.38878906 10.02164063 7.21507812 10.64453125 8.06640625 C11.09183594 8.70449219 11.53914062 9.34257812 12 10 C12.33 6.7 12.66 3.4 13 0 C14.32 0 15.64 0 17 0 C17 6.27 17 12.54 17 19 C16.34 19.33 15.68 19.66 15 20 C11.0747975 16.29909479 8.05419844 12.45040344 5 8 C4.67 11.96 4.34 15.92 4 20 C2.68 19.67 1.36 19.34 0 19 C0 12.73 0 6.46 0 0 Z " fill="#030303" transform="translate(131,16)"/>
<path d="M0 0 C10.17966102 -0.48474576 10.17966102 -0.48474576 13.75 1.625 C15.44231677 4.84040186 15.04260838 6.57428675 14 10 C13.34 10.66 12.68 11.32 12 12 C12.7734375 13.1446875 12.7734375 13.1446875 13.5625 14.3125 C14.036875 15.199375 14.51125 16.08625 15 17 C14.67 17.99 14.34 18.98 14 20 C10.11276476 18.52553146 9.06098117 16.4947072 7 13 C6.01 12.67 5.02 12.34 4 12 C4 14.31 4 16.62 4 19 C2.68 19 1.36 19 0 19 C0 12.73 0 6.46 0 0 Z M4 3 C4 4.98 4 6.96 4 9 C7.465 8.505 7.465 8.505 11 8 C11 6.68 11 5.36 11 4 C8.69 3.67 6.38 3.34 4 3 Z " fill="#030303" transform="translate(94,16)"/>
<path d="M0 0 C1.32 0 2.64 0 4 0 C4 2.64 4 5.28 4 8 C6.64 8 9.28 8 12 8 C12 5.36 12 2.72 12 0 C13.32 0 14.64 0 16 0 C16 6.27 16 12.54 16 19 C14.68 19 13.36 19 12 19 C12 16.36 12 13.72 12 11 C9.36 11 6.72 11 4 11 C4 13.64 4 16.28 4 19 C2.68 19 1.36 19 0 19 C0 12.73 0 6.46 0 0 Z " fill="#010101" transform="translate(55,16)"/>
<path d="M0 0 C0.09796875 0.68707031 0.1959375 1.37414062 0.296875 2.08203125 C0.52117188 3.43361328 0.52117188 3.43361328 0.75 4.8125 C0.88921875 5.70582031 1.0284375 6.59914063 1.171875 7.51953125 C2.17861456 10.53500115 3.27667913 11.43564965 6 13 C6.66 13 7.32 13 8 13 C8 13.66 8 14.32 8 15 C9.11375 14.79375 10.2275 14.5875 11.375 14.375 C12.57125 14.25125 13.7675 14.1275 15 14 C15.66 14.66 16.32 15.32 17 16 C16.67 16.99 16.34 17.98 16 19 C16.66 19.33 17.32 19.66 18 20 C13.8357867 22.08210665 8.30217694 21.71970127 3.92578125 20.3515625 C-0.68694705 18.01017764 -3.31399545 14.77867561 -5 10 C-5.5 6.25 -5.5 6.25 -5 3 C-2 0 -2 0 0 0 Z " fill="#222331" transform="translate(5,20)"/>
<path d="M0 0 C1.65 0 3.3 0 5 0 C7.31 6.27 9.62 12.54 12 19 C10.35 19 8.7 19 7 19 C6.67 18.01 6.34 17.02 6 16 C3.36 15.67 0.72 15.34 -2 15 C-2.33 16.32 -2.66 17.64 -3 19 C-4.32 18.67 -5.64 18.34 -7 18 C-4.69 12.06 -2.38 6.12 0 0 Z M2 5 C1.34 6.98 0.68 8.96 0 11 C1.65 11 3.3 11 5 11 C4.34 9.02 3.68 7.04 3 5 C2.67 5 2.34 5 2 5 Z " fill="#030303" transform="translate(80,16)"/>
<path d="M0 0 C1.32 0 2.64 0 4 0 C5.19996934 2.95342843 6.38281104 5.91341894 7.5625 8.875 C7.90474609 9.71675781 8.24699219 10.55851562 8.59960938 11.42578125 C8.91865234 12.23144531 9.23769531 13.03710938 9.56640625 13.8671875 C9.86490479 14.61081543 10.16340332 15.35444336 10.47094727 16.12060547 C11 18 11 18 10 20 C8.68 19.34 7.36 18.68 6 18 C6 17.01 6 16.02 6 15 C3.36 15.33 0.72 15.66 -2 16 C-2.33 16.99 -2.66 17.98 -3 19 C-4.32 19 -5.64 19 -7 19 C-6.31471486 14.85713983 -5.02109557 11.15886187 -3.5 7.25 C-3.0565625 6.10015625 -2.613125 4.9503125 -2.15625 3.765625 C-1 1 -1 1 0 0 Z M1 5 C0.67 6.98 0.34 8.96 0 11 C1.32 10.67 2.64 10.34 4 10 C3.34 8.35 2.68 6.7 2 5 C1.67 5 1.34 5 1 5 Z " fill="#040404" transform="translate(118,16)"/>
<path d="M0 0 C1.31677734 0.00580078 1.31677734 0.00580078 2.66015625 0.01171875 C4.9375 0.3125 4.9375 0.3125 6.9375 2.3125 C3.24208414 3.26274979 0.63291586 3.26274979 -3.0625 2.3125 C-3.3925 2.9725 -3.7225 3.6325 -4.0625 4.3125 C-3.11375 4.621875 -2.165 4.93125 -1.1875 5.25 C1.9375 6.3125 1.9375 6.3125 3.9375 7.3125 C3.6075 7.9725 3.2775 8.6325 2.9375 9.3125 C2.215625 9.10625 1.49375 8.9 0.75 8.6875 C-2.54383402 8.24832213 -4.15110203 8.77592885 -7.0625 10.3125 C-8.65637042 13.50024083 -8.58913137 16.85177959 -8.0625 20.3125 C-6.22908535 22.81770579 -6.22908535 22.81770579 -4.0625 24.3125 C-5.0525 24.6425 -6.0425 24.9725 -7.0625 25.3125 C-11.6554708 21.79122239 -12.18191917 17.73502403 -13.0625 12.3125 C-14.0525 13.6325 -15.0425 14.9525 -16.0625 16.3125 C-17.03539325 13.21693057 -17.23457681 11.73763094 -16 8.6875 C-13.66219184 5.82179968 -11.39776858 4.84116477 -8.0625 3.3125 C-7.61003906 2.79558594 -7.15757813 2.27867188 -6.69140625 1.74609375 C-4.44460493 -0.23130693 -2.94944252 -0.05646944 0 0 Z " fill="#0F101A" transform="translate(17.0625,8.6875)"/>
<path d="M0 0 C0 1.32 0 2.64 0 4 C-1.0725 3.7525 -2.145 3.505 -3.25 3.25 C-6.9590895 2.63533104 -6.9590895 2.63533104 -9.5 4.5625 C-11.32130981 6.98707224 -11.32130981 6.98707224 -10.75 10.25 C-10.5025 11.1575 -10.255 12.065 -10 13 C-6.33694766 13.74926071 -3.57644848 14.2380014 0 13 C0.33 13.99 0.66 14.98 1 16 C-2.06498634 18.32195935 -3.66223763 19 -7.5625 19 C-11.71297484 17.79258914 -12.85560262 16.71145701 -15 13 C-16.18330501 9.29231096 -16.17290014 7.51870042 -14.9375 3.8125 C-10.70979413 -2.3244924 -6.6828511 -2.53948342 0 0 Z " fill="#040404" transform="translate(51,17)"/>
<path d="M0 0 C1.91750286 0.08743331 3.83406665 0.1956189 5.75 0.3125 C6.81734375 0.37050781 7.8846875 0.42851562 8.984375 0.48828125 C12.25986681 1.04409657 13.7155075 1.60825433 16 4 C16.6796875 6.19140625 16.6796875 6.19140625 16.875 8.5625 C16.95492188 9.34753906 17.03484375 10.13257813 17.1171875 10.94140625 C17 13 17 13 15 15 C14.67 15.66 14.34 16.32 14 17 C13.34 17 12.68 17 12 17 C12.0825 16.236875 12.165 15.47375 12.25 14.6875 C12.12625 13.3571875 12.12625 13.3571875 12 12 C10.0399719 10.36323743 10.0399719 10.36323743 8 9 C8 8.01 8 7.02 8 6 C3.545 5.01 3.545 5.01 -1 4 C-0.67 2.68 -0.34 1.36 0 0 Z " fill="#252634" transform="translate(13,10)"/>
<path d="M0 0 C1.31677734 0.00580078 1.31677734 0.00580078 2.66015625 0.01171875 C4.9375 0.3125 4.9375 0.3125 6.9375 2.3125 C4.04984814 3.05503905 2.33374144 3.43137243 -0.5625 2.5625 C-1.3875 2.48 -2.2125 2.3975 -3.0625 2.3125 C-5.68749209 4.43609384 -5.68749209 4.43609384 -8.0625 7.3125 C-8.92875 8.158125 -9.795 9.00375 -10.6875 9.875 C-12.69333473 11.93361985 -14.41214689 13.96726137 -16.0625 16.3125 C-17.03539325 13.21693057 -17.23457681 11.73763094 -16 8.6875 C-13.66219184 5.82179968 -11.39776858 4.84116477 -8.0625 3.3125 C-7.61003906 2.79558594 -7.15757813 2.27867188 -6.69140625 1.74609375 C-4.44460493 -0.23130693 -2.94944252 -0.05646944 0 0 Z " fill="#292936" transform="translate(17.0625,8.6875)"/>
<path d="M0 0 C1.98 0.66 3.96 1.32 6 2 C6.625 5.375 6.625 5.375 7 9 C6.34 9.66 5.68 10.32 5 11 C4.67 11.66 4.34 12.32 4 13 C3.34 13 2.68 13 2 13 C2.0928125 11.948125 2.0928125 11.948125 2.1875 10.875 C1.95829109 7.36046341 0.58809888 5.10714998 -1 2 C-0.67 1.34 -0.34 0.68 0 0 Z " fill="#292839" transform="translate(23,14)"/>
<path d="M0 0 C0.66 0.66 1.32 1.32 2 2 C1.67 2.99 1.34 3.98 1 5 C-2.02454618 5.65273326 -4.90026751 6.1493847 -8 6 C-10.5625 3.5625 -10.5625 3.5625 -12 1 C-7.99047425 -0.33650858 -4.17983803 -0.20225023 0 0 Z " fill="#292B38" transform="translate(20,34)"/>
<path d="M0 0 C2.21573665 1.75730837 2.9402273 2.65698012 3.43359375 5.48828125 C3.44361979 12.73711003 2.28374215 16.48170484 -2.75 21.875 C-3.1625 22.24625 -3.575 22.6175 -4 23 C-4.99 22.67 -5.98 22.34 -7 22 C-5.71034824 20.62437146 -4.37310707 19.29233607 -3 18 C-2.34 18 -1.68 18 -1 18 C-0.6550855 16.66961551 -0.32483418 15.33542939 0 14 C0.20625 13.278125 0.4125 12.55625 0.625 11.8125 C1.16128242 7.79038184 0.5662712 3.99874584 0 0 Z " fill="#0B0A15" transform="translate(29,16)"/>
<path d="M0 0 C3.41025403 0.9516988 5.6475422 1.66712319 8.25 4.125 C12.33350179 6.90920576 16.19935998 6.33557872 21 6 C18.54026222 8.45973778 17.70700615 8.32301675 14.3125 8.375 C9.058771 8.26855687 6.19301079 7.14475809 2 4 C0.5625 1.75 0.5625 1.75 0 0 Z " fill="#12121A" transform="translate(2,33)"/>
<path d="M0 0 C3.26954202 0.56371414 4.82575883 1.49962266 7 4 C6.01 5.485 6.01 5.485 5 7 C1.375 7.1875 1.375 7.1875 -2 7 C-1.125 2.25 -1.125 2.25 0 0 Z " fill="#2A293A" transform="translate(15,21)"/>
<path d="M0 0 C-1 4 -1 4 -2 8 C0.31 8 2.62 8 5 8 C4.01 8.99 3.02 9.98 2 11 C-1.23285484 10.0641736 -2.67193589 9.51943484 -4.5 6.625 C-5 4 -5 4 -3.75 1.6875 C-2 0 -2 0 0 0 Z " fill="#151621" transform="translate(15,20)"/>
<path d="M0 0 C0 2.31 0 4.62 0 7 C-1.65 7.33 -3.3 7.66 -5 8 C-5.25 5.6875 -5.25 5.6875 -5 3 C-1.79310345 0 -1.79310345 0 0 0 Z " fill="#2B2A39" transform="translate(5,20)"/>
<path d="M0 0 C1.31291016 0.04253906 1.31291016 0.04253906 2.65234375 0.0859375 C3.53019531 0.09882813 4.40804688 0.11171875 5.3125 0.125 C7.58984375 0.4609375 7.58984375 0.4609375 9.58984375 2.4609375 C6.57584761 3.25876001 4.62872199 3.4680784 1.52734375 2.8984375 C-1.66221521 2.4233968 -2.76594865 2.73203253 -5.41015625 4.4609375 C-3.0931129 0.59155158 -3.0931129 0.59155158 0 0 Z " fill="#070811" transform="translate(14.41015625,8.5390625)"/>
<path d="M0 0 C0.8125 1.6875 0.8125 1.6875 1 4 C-1.4375 6.75 -1.4375 6.75 -4 9 C-4.99 8.67 -5.98 8.34 -7 8 C-5.71034824 6.62437146 -4.37310707 5.29233607 -3 4 C-2.34 4 -1.68 4 -1 4 C-0.67 2.68 -0.34 1.36 0 0 Z " fill="#14141E" transform="translate(29,30)"/>
<path d="M0 0 C3.3 0 6.6 0 10 0 C9.01 1.485 9.01 1.485 8 3 C6.0546875 3.29296875 6.0546875 3.29296875 3.875 3.1875 C2.59625 3.125625 1.3175 3.06375 0 3 C0 2.01 0 1.02 0 0 Z " fill="#0E0E0E" transform="translate(58,24)"/>
<path d="M0 0 C0.33 0 0.66 0 1 0 C1.0825 1.2375 1.165 2.475 1.25 3.75 C1.63475459 6.98882964 1.90024003 7.87907883 4.0625 10.5 C4.701875 10.995 5.34125 11.49 6 12 C5.01 12.33 4.02 12.66 3 13 C0.75393573 11.22555028 0.04918998 10.41647515 -0.29296875 7.51953125 C-0.25816406 6.62621094 -0.22335938 5.73289062 -0.1875 4.8125 C-0.16042969 3.91144531 -0.13335938 3.01039062 -0.10546875 2.08203125 C-0.07066406 1.39496094 -0.03585938 0.70789063 0 0 Z " fill="#070811" transform="translate(7,21)"/>
<path d="M0 0 C0.66 0 1.32 0 2 0 C1.43628586 3.26954202 0.50037734 4.82575883 -2 7 C-2.33 6.01 -2.66 5.02 -3 4 C-1.6875 1.8125 -1.6875 1.8125 0 0 Z " fill="#202028" transform="translate(13,20)"/>
<path d="M0 0 C3.375 0.25 3.375 0.25 7 1 C8.4375 3.0625 8.4375 3.0625 9 5 C7.02 4.34 5.04 3.68 3 3 C3 2.34 3 1.68 3 1 C2.01 0.67 1.02 0.34 0 0 Z " fill="#161622" transform="translate(20,11)"/>
<path d="M0 0 C0.33 0.66 0.66 1.32 1 2 C-1.33333333 4.33333333 -3.66666667 6.66666667 -6 9 C-5.45276317 5.62537285 -4.9451 3.91765 -3 1 C-2.01 0.67 -1.02 0.34 0 0 Z " fill="#090913" transform="translate(6,14)"/>
<path d="M0 0 C1.32 0 2.64 0 4 0 C4.33 2.64 4.66 5.28 5 8 C1.39345961 5.59563974 1.14547068 4.05320393 0 0 Z " fill="#1F1F2E" transform="translate(19,13)"/>
<path d="" fill="#000000" transform="translate(0,0)"/>
<path d="" fill="#000000" transform="translate(0,0)"/>
<path d="" fill="#000000" transform="translate(0,0)"/>
<path d="" fill="#000000" transform="translate(0,0)"/>
</svg>
